HIERARCHY
ROOT Hips
{
	OFFSET 0.000000 0.000000 0.990480
	CHANNELS 6 Xposition Yposition Zposition Xrotation Yrotation Zrotation
	JOINT Spine
	{
		OFFSET 0.000000 0.000000 0.099820
		CHANNELS 6 Xposition Yposition Zposition Xrotation Yrotation Zrotation
		JOINT Chest
		{
			OFFSET 0.000000 0.000000 0.152175
			CHANNELS 6 Xposition Yposition Zposition Xrotation Yrotation Zrotation
			JOINT Neck
			{
				OFFSET 0.000000 0.000000 0.337083
				CHANNELS 6 Xposition Yposition Zposition Xrotation Yrotation Zrotation
				JOINT Head
				{
					OFFSET 0.000000 0.000000 0.150550
					CHANNELS 3 Xrotation Yrotation Zrotation
					End Site
					{
						OFFSET 0.000000 0.000000 0.164719
					}
				}
			}
			JOINT RightShoulder
			{
				OFFSET -0.043277 0.000000 0.228616
				CHANNELS 6 Xposition Yposition Zposition Xrotation Yrotation Zrotation
				JOINT RightArm
				{
					OFFSET -0.105461 0.000000 0.000004
					CHANNELS 6 Xposition Yposition Zposition Xrotation Yrotation Zrotation
					JOINT RightForeArm
					{
						OFFSET -0.247377 0.000000 0.000009
						CHANNELS 6 Xposition Yposition Zposition Xrotation Yrotation Zrotation
						JOINT RightHand
						{
							OFFSET -0.262149 0.000000 0.000009
							CHANNELS 6 Xposition Yposition Zposition Xrotation Yrotation Zrotation
							JOINT RightHandIndex1
							{
								OFFSET -0.082535 -0.029415 0.000003
								CHANNELS 3 Xrotation Yrotation Zrotation
								JOINT RightHandIndex2
								{
									OFFSET -0.033301 -0.004409 0.000001
									CHANNELS 3 Xrotation Yrotation Zrotation
									JOINT RightHandIndex3
									{
										OFFSET -0.025492 -0.003784 0.000001
										CHANNELS 3 Xrotation Yrotation Zrotation
										End Site
										{
											OFFSET -0.043285 -0.003344 0.000001
										}
									}
								}
							}
							JOINT RightHandMiddle1
							{
								OFFSET -0.088557 -0.008155 0.000003
								CHANNELS 3 Xrotation Yrotation Zrotation
								JOINT RightHandMiddle2
								{
									OFFSET -0.034042 -0.001186 0.000001
									CHANNELS 3 Xrotation Yrotation Zrotation
									JOINT RightHandMiddle3
									{
										OFFSET -0.026773 -0.000599 0.000000
										CHANNELS 3 Xrotation Yrotation Zrotation
										End Site
										{
											OFFSET -0.052615 -0.002366 0.000002
										}
									}
								}
							}
							JOINT RightHandRing1
							{
								OFFSET -0.085632 0.009333 0.000003
								CHANNELS 3 Xrotation Yrotation Zrotation
								JOINT RightHandRing2
								{
									OFFSET -0.029113 0.002339 0.000001
									CHANNELS 3 Xrotation Yrotation Zrotation
									JOINT RightHandRing3
									{
										OFFSET -0.027037 0.001866 0.000001
										CHANNELS 3 Xrotation Yrotation Zrotation
										End Site
										{
											OFFSET -0.048310 0.000687 0.000001
										}
									}
								}
							}
							JOINT RightHandPinky1
							{
								OFFSET -0.076599 0.027405 0.000003
								CHANNELS 3 Xrotation Yrotation Zrotation
								JOINT RightHandPinky2
								{
									OFFSET -0.032445 0.007645 0.000002
									CHANNELS 3 Xrotation Yrotation Zrotation
									JOINT RightHandPinky3
									{
										OFFSET -0.019101 0.004136 0.000001
										CHANNELS 3 Xrotation Yrotation Zrotation
										End Site
										{
											OFFSET -0.036478 0.003212 0.000001
										}
									}
								}
							}
							JOINT RightHandThumb1
							{
								OFFSET -0.018894 -0.029252 0.000001
								CHANNELS 3 Xrotation Yrotation Zrotation
								JOINT RightHandThumb2
								{
									OFFSET -0.024834 -0.023384 0.000001
									CHANNELS 3 Xrotation Yrotation Zrotation
									JOINT RightHandThumb3
									{
										OFFSET -0.024730 -0.013883 0.000001
										CHANNELS 3 Xrotation Yrotation Zrotation
										End Site
										{
											OFFSET -0.036269 -0.015625 0.000001
										}
									}
								}
							}
						}
					}
				}
			}
			JOINT LeftShoulder
			{
				OFFSET 0.043336 0.000000 0.228616
				CHANNELS 6 Xposition Yposition Zposition Xrotation Yrotation Zrotation
				JOINT LeftArm
				{
					OFFSET 0.105402 0.000000 0.000018
					CHANNELS 6 Xposition Yposition Zposition Xrotation Yrotation Zrotation
					JOINT LeftForeArm
					{
						OFFSET 0.248086 -0.001017 0.000042
						CHANNELS 6 Xposition Yposition Zposition Xrotation Yrotation Zrotation
						JOINT LeftHand
						{
							OFFSET 0.262001 0.000000 0.000044
							CHANNELS 6 Xposition Yposition Zposition Xrotation Yrotation Zrotation
							JOINT LeftHandIndex1
							{
								OFFSET 0.082507 -0.030061 -0.000028
								CHANNELS 3 Xrotation Yrotation Zrotation
								JOINT LeftHandIndex2
								{
									OFFSET 0.033280 -0.004602 0.000048
									CHANNELS 3 Xrotation Yrotation Zrotation
									JOINT LeftHandIndex3
									{
										OFFSET 0.025464 -0.003944 0.000004
										CHANNELS 3 Xrotation Yrotation Zrotation
										End Site
										{
											OFFSET 0.043236 -0.003593 0.000007
										}
									}
								}
							}
							JOINT LeftHandMiddle1
							{
								OFFSET 0.088481 -0.008664 0.000015
								CHANNELS 3 Xrotation Yrotation Zrotation
								JOINT LeftHandMiddle2
								{
									OFFSET 0.034019 -0.001373 0.000006
									CHANNELS 3 Xrotation Yrotation Zrotation
									JOINT LeftHandMiddle3
									{
										OFFSET 0.026769 -0.000745 0.000005
										CHANNELS 3 Xrotation Yrotation Zrotation
										End Site
										{
											OFFSET 0.052542 -0.002648 0.000009
										}
									}
								}
							}
							JOINT LeftHandRing1
							{
								OFFSET 0.085626 0.008930 0.000014
								CHANNELS 3 Xrotation Yrotation Zrotation
								JOINT LeftHandRing2
								{
									OFFSET 0.029129 0.002221 0.000005
									CHANNELS 3 Xrotation Yrotation Zrotation
									JOINT LeftHandRing3
									{
										OFFSET 0.027049 0.001739 0.000005
										CHANNELS 3 Xrotation Yrotation Zrotation
										End Site
										{
											OFFSET 0.048215 0.000435 0.000008
										}
									}
								}
							}
							JOINT LeftHandPinky1
							{
								OFFSET 0.076700 0.027168 0.000013
								CHANNELS 3 Xrotation Yrotation Zrotation
								JOINT LeftHandPinky2
								{
									OFFSET 0.032485 0.007539 0.000005
									CHANNELS 3 Xrotation Yrotation Zrotation
									JOINT LeftHandPinky3
									{
										OFFSET 0.019121 0.004064 0.000003
										CHANNELS 3 Xrotation Yrotation Zrotation
										End Site
										{
											OFFSET 0.036502 0.003032 0.000006
										}
									}
								}
							}
							JOINT LeftHandThumb1
							{
								OFFSET 0.018711 -0.029540 0.000003
								CHANNELS 3 Xrotation Yrotation Zrotation
								JOINT LeftHandThumb2
								{
									OFFSET 0.024721 -0.023664 0.000004
									CHANNELS 3 Xrotation Yrotation Zrotation
									JOINT LeftHandThumb3
									{
										OFFSET 0.024649 -0.014096 0.000004
										CHANNELS 3 Xrotation Yrotation Zrotation
										End Site
										{
											OFFSET 0.036243 -0.015928 0.000006
										}
									}
								}
							}
						}
					}
				}
			}
		}
	}
	JOINT RightUpLeg
	{
		OFFSET -0.115000 0.000000 -0.015985
		CHANNELS 6 Xposition Yposition Zposition Xrotation Yrotation Zrotation
		JOINT RightLeg
		{
			OFFSET 0.000000 0.000000 -0.417140
			CHANNELS 6 Xposition Yposition Zposition Xrotation Yrotation Zrotation
			JOINT RightFoot
			{
				OFFSET 0.000000 0.000000 -0.438030
				CHANNELS 3 Xrotation Yrotation Zrotation
				JOINT RightToeBase
				{
					OFFSET 0.000000 -0.104620 -0.083528
					CHANNELS 6 Xposition Yposition Zposition Xrotation Yrotation Zrotation
					End Site
					{
						OFFSET 0.000000 -0.133871 -0.000951
					}
				}
			}
		}
	}
	JOINT LeftUpLeg
	{
		OFFSET 0.115000 0.000000 -0.015985
		CHANNELS 6 Xposition Yposition Zposition Xrotation Yrotation Zrotation
		JOINT LeftLeg
		{
			OFFSET 0.000000 0.000000 -0.417140
			CHANNELS 6 Xposition Yposition Zposition Xrotation Yrotation Zrotation
			JOINT LeftFoot
			{
				OFFSET 0.000000 0.000000 -0.438030
				CHANNELS 3 Xrotation Yrotation Zrotation
				JOINT LeftToeBase
				{
					OFFSET 0.000000 -0.104620 -0.083528
					CHANNELS 6 Xposition Yposition Zposition Xrotation Yrotation Zrotation
					End Site
					{
						OFFSET 0.000000 -0.133871 -0.000951
					}
				}
			}
		}
	}
}
MOTION
Frames: 8
Frame Time:	0.016667
0 0 0.9905 0 0 0 0 0 0.0998 0 0 0 0 0 0.1522 0 0 0 0 0 0.3371 0 0 0 0 0 0 -0.0433 0 0.2286 0 0 0 -0.1055 0 0 0 0 0 -0.2474 0 0 0 0 0 -0.2621 0 0 0 0 0 0 0 0 0 0 0 0 0 0 0 0 0 0 0 0 0 0 0 0 0 0 0 0 0 0 0 0 0 0 0 0 0 0 0 0 0 0 0 0 0 0 0 0 0 0 0.0433 0 0.2286 0 0 0 0.1054 0 0 0 0 0 0.2481 -0.001 0 0 0 0 0.262 0 0 0 0 0 0 0 0 0 0 0 0 0 0 0 0 0 0 0 0 0 0 0 0 0 0 0 0 0 0 0 0 0 0 0 0 0 0 0 0 0 0 0 0 0 0 0 0 0 0 -0.115 0 -0.016 0 0 0 0 0 -0.4171 0 0 0 0 0 0 0 -0.1046 -0.0835 0 0 0 0.115 0 -0.016 0 0 0 0 0 -0.4171 0 0 0 0 0 0 0 -0.1046 -0.0835 0 0 0 
0.0451 0.0144 0.9506 -8.2424 1.3026 -11.296 0 0 0.0987 9.7806 1.5932 -0.6095 0 -0.0001 0.1511 13.2697 2.2491 -1.7741 0 0.0001 0.2923 0.0929 0.3239 6.9256 -33.7181 -2.8203 6.545 -0.0433 0.0001 0.2365 9.4938 -22.859 -3.0446 -0.1055 0 0 15.8306 -43.4981 22.8409 -0.2672 0 0 -4.7059 -3.3287 30.4776 -0.2831 0 0 30.6905 7.1719 14.2943 23.3456 -61.0556 28.6351 29.293 -78.1046 26.4794 9.4939 -64.6747 7.5694 6.4578 -55.8985 8.8518 3.0432 -74.8481 2.661 2.5677 -72.8082 2.2044 -10.0611 -66.8901 -4.6453 -10.4011 -75.907 -9.1873 -15.9212 -79.9764 -14.5892 -7.3142 -48.7795 3.4419 -23.9411 -64.474 -15.7747 -26.3029 -66.2458 -17.9217 12.1444 -22.2067 -0.2816 -0.004 0.0019 -24.4268 -0.0042 0.0029 -51.7716 0.0433 0.0001 0.2365 7.9116 20.8071 2.6073 0.1054 0 0 11.8589 40.667 -14.9142 0.2674 -0.0011 0 -5.245 3.6264 -52.9039 0.2824 0 0 26.304 -4.5627 -8.3801 28.1945 63.4418 -33.507 35.909 79.3401 -32.8656 9.9417 64.7135 -7.9294 11.8673 63.6078 -16.2674 5.091 78.0082 -4.5796 4.0924 75.7301 -3.607 -9.1182 67.1052 3.3723 -10.3808 75.9946 8.9914 -15.7817 80.086 14.2785 -10.2112 61.5262 -6.7873 -29.2644 68.2506 20.6169 -34.3061 70.7747 25.3413 12.3194 22.3311 1.1276 -0.004 -0.0009 25.3369 -0.0072 -0.0043 53.0963 -0.115 0 -0.016 15.5294 4.8 -8.2225 0 0 -0.4171 15.4731 -0.272 0.0369 -22.0177 -6.5177 -5.5262 0 -0.1046 -0.0835 -0.3834 0 0 0.115 0 -0.016 2.1101 -1.9414 8.9009 0 0 -0.4171 26.967 0.6834 -0.1639 -18.3874 -1.3614 7.567 0 -0.1046 -0.0835 -1.6421 0 0 
0.0468 0.0116 0.9505 -8.445 1.2113 -11.2716 0 0 0.0987 9.9268 1.6783 -0.6533 0 -0.0001 0.1511 13.4657 2.3591 -1.9104 0 0.0001 0.2923 0.0858 0.3089 6.9062 -33.819 -2.9609 6.4738 -0.0433 0.0001 0.2364 9.5009 -22.8719 -3.0499 -0.1055 0 0 15.7577 -43.563 22.9482 -0.2672 0 0 -4.8535 -3.3507 30.0778 -0.2831 0 0 30.4586 7.2851 14.5514 23.3456 -61.0556 28.6351 29.293 -78.1046 26.4794 9.4938 -64.6747 7.5694 6.4578 -55.8985 8.8519 3.0432 -74.848 2.661 2.5677 -72.8083 2.2044 -10.0612 -66.8901 -4.6454 -10.4011 -75.907 -9.1873 -15.9212 -79.9764 -14.5893 -7.3141 -48.7795 3.4421 -23.9412 -64.474 -15.7747 -26.3031 -66.2459 -17.9219 12.1444 -22.2067 -0.2817 -0.004 0.0019 -24.4268 -0.0042 0.0029 -51.7716 0.0433 0.0001 0.2364 7.8452 20.7269 2.5746 0.1054 0 0 11.7353 40.5616 -14.9657 0.2674 -0.0011 0 -5.3885 3.609 -53.1699 0.2824 0 0 26.1183 -4.5405 -8.3484 28.1945 63.4418 -33.507 35.9091 79.3402 -32.8656 9.9417 64.7136 -7.9294 11.8668 63.6074 -16.2666 5.0905 78.0069 -4.5791 4.0921 75.7292 -3.6067 -9.1182 67.1052 3.3723 -10.3808 75.9946 8.9915 -15.7817 80.086 14.2786 -10.2113 61.5262 -6.7872 -29.2643 68.2506 20.6169 -34.3061 70.7747 25.3413 12.3194 22.3311 1.1276 -0.004 -0.0009 25.3369 -0.0073 -0.0043 53.0963 -0.115 0 -0.016 15.1105 5.157 -8.3635 0 0 -0.4171 16.8797 -0.2888 0.0414 -22.0903 -6.6523 -5.5986 0 -0.1046 -0.0835 -0.7804 0.0009 0.0003 0.115 0 -0.016 2.5525 -1.6355 8.8886 0 0 -0.4171 26.764 0.6852 -0.1628 -18.5246 -1.5601 7.5405 0 -0.1046 -0.0835 -1.6012 0 0 
0.0501 0.0073 0.9503 -8.7892 1.1292 -11.2106 0 0 0.0987 10.1298 1.7114 -0.6943 0 -0.0001 0.1511 13.7396 2.3955 -2.047 0 0.0001 0.2923 0.0821 0.2836 6.8579 -33.8997 -2.958 6.4242 -0.0433 0.0001 0.2364 9.4812 -22.863 -3.1251 -0.1055 0 0 15.5436 -43.5437 22.8074 -0.2672 0 0 -5.027 -3.3702 29.7092 -0.2831 0 0 30.1186 7.3804 14.8797 23.3456 -61.0556 28.6351 29.2931 -78.1047 26.4796 9.4938 -64.6746 7.5693 6.4579 -55.8986 8.8519 3.0432 -74.8482 2.661 2.5678 -72.8084 2.2045 -10.0612 -66.8901 -4.6454 -10.4011 -75.9071 -9.1872 -15.9212 -79.9764 -14.5893 -7.3141 -48.7796 3.4424 -23.9413 -64.4741 -15.7748 -26.3034 -66.2462 -17.9221 12.1444 -22.2067 -0.2817 -0.004 0.0019 -24.4268 -0.0042 0.0029 -51.7716 0.0433 0.0001 0.2364 7.7579 20.618 2.4698 0.1054 0 0 11.6206 40.4532 -15.272 0.2674 -0.0011 0 -5.6099 3.601 -53.4378 0.2824 0 0 25.8576 -4.4306 -8.3054 28.056 63.3851 -33.3445 35.6238 79.2804 -32.5852 9.9417 64.7135 -7.9294 11.7502 63.5044 -16.0908 5.1082 78.0411 -4.5964 4.0914 75.7273 -3.606 -9.0586 66.9165 3.3647 -10.3807 75.9946 8.9914 -15.7816 80.086 14.2787 -10.1062 61.191 -6.7848 -29.2643 68.2506 20.6169 -34.0967 70.6838 25.1436 12.3349 22.3536 1.2004 -0.004 -0.0009 25.2305 -0.0072 -0.0043 52.9867 -0.115 0 -0.016 14.4649 5.6668 -8.5622 0 0 -0.4171 19.1584 -0.3105 0.048 -22.078 -6.7787 -5.7508 0 -0.1046 -0.0835 -1.4738 0.0033 0.0015 0.115 0 -0.016 3.2664 -1.194 8.8375 0 0 -0.4171 26.4852 0.6939 -0.1626 -18.7207 -1.8976 7.4694 0 -0.1046 -0.0835 -1.5677 0 0 
0.0522 0.0039 0.9504 -9.0167 1.0274 -11.1533 0 0 0.0988 10.3204 1.8049 -0.7444 0 -0.0001 0.1512 13.9942 2.5137 -2.2038 0 0.0001 0.2924 0.0705 0.2594 6.7988 -34.0547 -3.0661 6.3121 -0.0433 0.0001 0.2364 9.4938 -22.8843 -3.1316 -0.1055 0 0 15.4341 -43.6525 22.9608 -0.2672 0 0 -5.2477 -3.4 29.1243 -0.2831 0 0 29.7655 7.6066 15.2524 23.3456 -61.0555 28.635 29.2932 -78.1046 26.4794 9.4939 -64.6747 7.5694 6.4579 -55.8985 8.8519 3.0433 -74.8482 2.661 2.5678 -72.8084 2.2044 -10.0611 -66.89 -4.6453 -10.4011 -75.907 -9.1873 -15.9211 -79.9764 -14.5893 -7.3141 -48.7796 3.4424 -23.9413 -64.4742 -15.7749 -26.3034 -66.2462 -17.9221 12.1444 -22.2067 -0.2817 -0.004 0.0019 -24.4267 -0.0042 0.0029 -51.7716 0.0433 0.0001 0.2364 7.6407 20.4806 2.4059 0.1054 0 0 11.4434 40.2389 -15.5063 0.2674 -0.0011 0 -5.8541 3.5422 -53.6532 0.2824 0 0 25.6154 -4.3335 -8.3449 28.056 63.3851 -33.3444 35.6238 79.2804 -32.5852 9.9417 64.7135 -7.9294 11.7497 63.504 -16.09 5.1075 78.0398 -4.5958 4.0912 75.7264 -3.6058 -9.0586 66.9165 3.3647 -10.3807 75.9946 8.9914 -15.7816 80.086 14.2786 -10.1062 61.191 -6.7848 -29.2642 68.2505 20.6168 -34.0968 70.6838 25.1437 12.3349 22.3536 1.2003 -0.004 -0.0009 25.2306 -0.0072 -0.0043 52.9867 -0.115 0 -0.016 13.252 6.1263 -8.7154 0 0 -0.4171 22.1654 -0.3476 0.0645 -22.0282 -6.6763 -5.9555 0 -0.1046 -0.0835 -2.236 0.0054 0.0031 0.115 0 -0.016 3.8449 -0.8306 8.7866 0 0 -0.4171 26.1095 0.6944 -0.1602 -18.7789 -2.1516 7.3874 0 -0.1046 -0.0835 -1.5431 0 0 
0.0556 -0.0005 0.9508 -9.1794 1.0481 -11.0259 0 0 0.0989 10.5326 1.7887 -0.7713 0 -0.0001 0.1513 14.2775 2.4802 -2.3018 0 0.0001 0.2924 0.0585 0.2245 6.6478 -34.2234 -3.0019 6.1739 -0.0433 0.0001 0.2364 9.4885 -22.8924 -3.1999 -0.1055 0 0 15.1455 -43.7476 22.8386 -0.2672 0 0 -5.5478 -3.4555 28.5736 -0.2831 0 0 29.1682 7.9496 15.6341 23.3456 -61.0555 28.6351 29.2931 -78.1046 26.4794 9.4939 -64.6747 7.5694 6.4578 -55.8985 8.8519 3.0433 -74.8481 2.6611 2.5678 -72.8083 2.2044 -10.0612 -66.8901 -4.6453 -10.4012 -75.907 -9.1873 -15.9211 -79.9764 -14.589 -7.3141 -48.7795 3.4421 -23.9412 -64.474 -15.7747 -26.3031 -66.2459 -17.9219 12.1444 -22.2067 -0.2817 -0.0039 0.0019 -24.4267 -0.0042 0.0029 -51.7716 0.0433 0.0001 0.2364 7.5057 20.3169 2.2527 0.1054 0 0 11.3304 40.0157 -16.078 0.2674 -0.0011 0 -6.1313 3.4449 -53.8563 0.2824 0 0 25.4285 -4.3191 -8.4085 28.056 63.3851 -33.3445 35.6239 79.2804 -32.5855 9.9417 64.7135 -7.9293 11.7487 63.5031 -16.0885 5.1064 78.0374 -4.5946 4.0905 75.7246 -3.6051 -9.0586 66.9165 3.3647 -10.3807 75.9946 8.9914 -15.7815 80.086 14.2785 -10.1063 61.1909 -6.7847 -29.2642 68.2505 20.6168 -34.0966 70.6838 25.1435 12.3349 22.3536 1.2003 -0.004 -0.0009 25.2306 -0.0072 -0.0043 52.9867 -0.115 0 -0.016 11.3977 6.5413 -9.0063 0 0 -0.4171 26.3543 -0.3983 0.0914 -21.4155 -6.4878 -6.533 0 -0.1046 -0.0835 -3.4882 0.0159 0.0077 0.115 0 -0.016 4.5527 -0.5068 8.7076 0 0 -0.4171 25.4987 0.6988 -0.1564 -18.7858 -2.4951 7.2492 0 -0.1046 -0.0835 -1.5184 0 0 
0.058 -0.0039 0.9512 -9.2278 1.1036 -10.8978 0 0 0.0989 10.6933 1.7714 -0.7957 0 -0.0002 0.1513 14.4894 2.4469 -2.3902 0 0.0002 0.2924 0.0422 0.1947 6.5024 -34.3747 -2.9915 6.0364 -0.0433 0.0002 0.2364 9.4973 -22.9111 -3.2411 -0.1055 0 0 14.9193 -43.8842 22.7389 -0.2672 0 0 -5.8017 -3.5194 28.1674 -0.2831 0 0 28.6379 8.257 15.8975 23.3456 -61.0556 28.6352 29.2931 -78.1047 26.4796 9.4938 -64.6746 7.5693 6.4578 -55.8985 8.8518 3.0431 -74.8479 2.661 2.5677 -72.808 2.2044 -10.0612 -66.8901 -4.6454 -10.4012 -75.907 -9.1872 -15.9211 -79.9764 -14.5892 -7.3142 -48.7793 3.4416 -23.9411 -64.4739 -15.7746 -26.3027 -66.2456 -17.9215 12.1444 -22.2067 -0.2817 -0.004 0.0019 -24.4268 -0.0042 0.0029 -51.7716 0.0433 0.0002 0.2364 7.3852 20.1727 2.1413 0.1054 0 0 11.2265 39.7927 -16.5102 0.2674 -0.0011 0 -6.345 3.3302 -54.0495 0.2824 0 0 25.3262 -4.357 -8.4781 28.056 63.3851 -33.3445 35.6238 79.2804 -32.5854 9.9417 64.7135 -7.9294 11.7477 63.5023 -16.087 5.1049 78.0347 -4.5931 4.0897 75.7228 -3.6045 -9.0586 66.9165 3.3647 -10.3807 75.9946 8.9914 -15.7817 80.086 14.2786 -10.1063 61.191 -6.7846 -29.2641 68.2505 20.6167 -34.0966 70.6837 25.1435 12.3349 22.3536 1.2003 -0.004 -0.0009 25.2306 -0.0072 -0.0043 52.9867 -0.115 0 -0.016 9.0029 6.8601 -9.4101 0 0 -0.4171 31.1408 -0.473 0.1391 -20.39 -5.9972 -7.3289 0 -0.1046 -0.0835 -4.8733 0.0271 0.0135 0.115 0 -0.016 5.0781 -0.3304 8.6453 0 0 -0.4171 24.9285 0.6979 -0.1526 -18.7515 -2.6934 7.1223 0 -0.1046 -0.0835 -1.4933 0 0 
0.0612 -0.008 0.9516 -9.2022 1.2967 -10.8019 0 0 0.0989 10.8705 1.6657 -0.7938 0 -0.0002 0.1513 14.7206 2.2928 -2.4013 0 0.0002 0.2924 0.0193 0.1601 6.308 -34.5603 -2.902 5.9072 -0.0433 0.0002 0.2364 9.4914 -22.9145 -3.3161 -0.1055 0 0 14.5735 -43.9996 22.3773 -0.2672 0 0 -6.0722 -3.6154 28.0093 -0.2831 0 0 27.96 8.4074 15.9401 23.3456 -61.0556 28.6351 29.2929 -78.1047 26.4795 9.4938 -64.6746 7.5693 6.4577 -55.8984 8.8517 3.0432 -74.8479 2.661 2.5677 -72.808 2.2044 -10.0612 -66.8901 -4.6454 -10.4012 -75.907 -9.1873 -15.9213 -79.9764 -14.5893 -7.3142 -48.7793 3.4414 -23.941 -64.4739 -15.7745 -26.3025 -66.2455 -17.9213 12.1444 -22.2067 -0.2817 -0.004 0.0019 -24.4268 -0.0042 0.0029 -51.7716 0.0433 0.0002 0.2364 7.2708 20.0304 1.987 0.1054 0 0 11.1781 39.607 -17.0469 0.2674 -0.0011 0 -6.5327 3.2062 -54.3487 0.2823 0 0 25.2847 -4.4921 -8.5365 28.056 63.3851 -33.3445 35.6239 79.2804 -32.5854 9.9417 64.7135 -7.9293 11.7472 63.5018 -16.0863 5.1041 78.0333 -4.5925 4.0895 75.722 -3.6042 -9.0587 66.9165 3.3648 -10.3807 75.9946 8.9914 -15.7818 80.086 14.2787 -10.1064 61.191 -6.7845 -29.2641 68.2505 20.6167 -34.0965 70.6837 25.1435 12.3349 22.3537 1.2003 -0.004 -0.0009 25.2306 -0.0072 -0.0043 52.9867 -0.115 0 -0.016 5.9161 7.0086 -9.6288 0 0 -0.4171 36.8778 -0.5676 0.2115 -19.1374 -4.8494 -8.7653 0 -0.1046 -0.0835 -5.9484 0.0325 0.0199 0.115 0 -0.016 5.6559 -0.2499 8.6129 0 0 -0.4171 24.2716 0.697 -0.148 -18.7873 -2.8406 7.0133 0 -0.1046 -0.0835 -1.44 0 0 
